<svg id="Layer_1" data-name="Layer 1" xmlns="http://www.w3.org/2000/svg" viewBox="0 0 1272.65 706"><path d="M3.67,185.92q11-.54,15.59-3.09,7.65-4.31,7.65-16.25V33.33q0-11.61-6.85-15.74Q15.91,15.19,3.67,14V7H96.76v7q-12.09.67-16.79,3.2-7.78,4.28-7.79,16.15V90.41h65.55V33.33q0-11.88-7.39-16-4.56-2.53-17.06-3.34V7H206.9v7q-12.08.94-16.52,3.47Q183,21.59,183,33.33V166.58q0,12.07,8.19,16.38,4.69,2.56,15.71,3v7H113.28v-7q11.82-.4,16.79-3.23,7.67-4.29,7.66-16.11v-63.4H72.18v63.4q0,12.22,8.33,16.52,4.83,2.42,16.25,2.82v7H3.67Z" transform="translate(-3.67 -7)"/><path d="M219.67,441.75a20.64,20.64,0,0,0,16-9q3.89-5.24,11.14-23.1l61.12-150.57h7.66L377,403.61q10.35,24.31,15.45,31.36t14.51,6.78v7H317.86v-7q13.42-.53,17.66-2.28t4.24-8.86q0-3.23-2.15-9.81-1.35-3.9-3.64-9.4l-7-16.66H265.21q-6,16.39-7.79,21.36-3.63,10.61-3.63,15.45,0,5.91,7.92,8.59,4.71,1.49,14.11,1.61v7H219.67Zm103.27-57.89-26.46-63.67h-2.31l-24.83,63.67Z" transform="translate(-3.67 -7)"/><path d="M420,703.09q11.14-.4,16-3,8.19-4.3,8.2-16.39V550.5q0-12-7.66-16.14-4.57-2.54-16.52-3.2v-7h85q24.58,0,40.84,5.65,30.63,10.6,30.62,38.68,0,17.06-12.42,27.07a59.92,59.92,0,0,1-26.93,12.69v2.55a78.32,78.32,0,0,1,26.59,9.94q22,13.71,22,38.15,0,22.83-21.09,37t-56.14,14.17H420ZM522.37,599.26q8.73-8.32,8.73-29.55,0-15.72-5.71-26.46t-22-10.75q-8.6,0-11.95,2.89c-2.24,1.93-3.36,5.39-3.36,10.41v61.79Q513.64,607.59,522.37,599.26Zm-32.1,96q3.36,5.91,12.89,5.91,19.48,0,27.34-10.61t7.86-30.22q0-29.28-17.33-39-10.49-5.89-32.91-5.5v68.77Q488.26,691.95,490.27,695.3Z" transform="translate(-3.67 -7)"/><path d="M252.47,151.53q13.39-8.17,42-16.45v-15q0-9.16-3.88-13.55t-13.75-4.39a18.05,18.05,0,0,0-9.12,2.07q-3.57,2.07-3.57,5.19a4.44,4.44,0,0,0,.4,2,7.87,7.87,0,0,0,1.21,1.71l1.21,1.42a14.87,14.87,0,0,1,2.26,3.77,11.36,11.36,0,0,1,.86,4.38q0,5.85-3.88,9a13.78,13.78,0,0,1-9,3.18,15.24,15.24,0,0,1-10.13-3.52q-4.19-3.53-4.18-10.15,0-11.86,11.18-18.79t27.51-6.93q17.52,0,29.31,6.74t11.69,25.19v50a6.11,6.11,0,0,0,1.16,3.78,3.22,3.22,0,0,0,2.56,1.56,4.9,4.9,0,0,0,2.17-.46,13.3,13.3,0,0,0,3-2.46l3.13,4.33a33.59,33.59,0,0,1-13.4,9.87,26.57,26.57,0,0,1-9.77,1.82q-9.18,0-13.4-5.36-2.43-3-3.53-9a48.4,48.4,0,0,1-19.34,12.11,40.07,40.07,0,0,1-12.9,2.23,26.26,26.26,0,0,1-15.81-5.4q-7.37-5.4-7.36-16.81Q239.07,159.7,252.47,151.53Zm36,26.56a40.62,40.62,0,0,0,5.74-5.66v-30.2a43.27,43.27,0,0,0-14.51,6.36Q269.1,156,269.09,167.38q0,6.76,3.08,10.25a9,9,0,0,0,6.9,3.48A16,16,0,0,0,288.44,178.09Z" transform="translate(-3.67 -7)"/><path d="M386.16,97.9v4.94a15.27,15.27,0,0,0-5.75,1.47c-1.47.78-2.21,2.35-2.21,4.73a8.91,8.91,0,0,0,.3,2.33,36.19,36.19,0,0,0,1.21,3.46l16,40.4h.67l13.17-33.95a47.39,47.39,0,0,0-1.61-6.13,49.91,49.91,0,0,0-2.72-7.55c-1.08-1.89-2.1-3.07-3.08-3.54a21.57,21.57,0,0,0-6-1.22V97.9h48.25v4.94a26,26,0,0,0-7.1,1.12,3.51,3.51,0,0,0-2.67,3.55A19.87,19.87,0,0,0,435,111a47,47,0,0,0,1.36,5.33l12.33,37h-1.11l15.27-39.39c.2-.68.37-1.32.5-1.93a7.77,7.77,0,0,0,.21-1.73q0-4.37-2.57-5.69a20.71,20.71,0,0,0-7.51-1.73V97.9h28v4.94a12.37,12.37,0,0,0-5.9,2.59q-2.16,1.89-4.38,7.79l-32,82.61h-4.74l-21.26-63.71h-.88l-24.7,63.71h-5L352,118.65q-3.83-9.63-5.64-12.31t-6-3.5V97.9Z" transform="translate(-3.67 -7)"/><path d="M504.63,151.53q13.39-8.17,42-16.45v-15q0-9.16-3.88-13.55T529,102.13a18,18,0,0,0-9.12,2.07c-2.38,1.38-3.58,3.11-3.58,5.19a4.44,4.44,0,0,0,.41,2,7.54,7.54,0,0,0,1.21,1.71l1.21,1.42a14.87,14.87,0,0,1,2.26,3.77,11.36,11.36,0,0,1,.86,4.38q0,5.85-3.88,9a13.81,13.81,0,0,1-9,3.18,15.23,15.23,0,0,1-10.12-3.52q-4.19-3.53-4.18-10.15,0-11.86,11.18-18.79t27.5-6.93q17.53,0,29.32,6.74t11.68,25.19v50a6.18,6.18,0,0,0,1.16,3.78,3.24,3.24,0,0,0,2.57,1.56,4.9,4.9,0,0,0,2.17-.46,13.3,13.3,0,0,0,3-2.46l3.12,4.33a33.53,33.53,0,0,1-13.4,9.87,26.53,26.53,0,0,1-9.77,1.82q-9.16,0-13.4-5.36-2.42-3-3.52-9A48.4,48.4,0,0,1,527.3,193.6a40.07,40.07,0,0,1-12.9,2.23,26.31,26.31,0,0,1-15.82-5.4q-7.35-5.4-7.35-16.81Q491.23,159.7,504.63,151.53Zm36,26.56a40.08,40.08,0,0,0,5.75-5.66v-30.2a43.18,43.18,0,0,0-14.51,6.36q-10.58,7.38-10.58,18.79,0,6.76,3.07,10.25a9,9,0,0,0,6.9,3.48A16,16,0,0,0,540.59,178.09Z" transform="translate(-3.67 -7)"/><path d="M592.48,188c3.62-.6,6.11-1.5,7.45-2.71,2-1.82,3-5.07,3-9.78V114.83q0-6.3-2.11-8.59t-8.36-3.4V97.9h39.59v78.38q0,6.75,2,8.67c1.34,1.27,3.86,2.28,7.56,3v4.94H592.48ZM606.23,55a16,16,0,0,1,27.25,11.33A16,16,0,1,1,606.23,55Z" transform="translate(-3.67 -7)"/><path d="M649.8,188c3.62-.6,6.11-1.5,7.45-2.71,2-1.82,3-5.07,3-9.78V114.83q0-6.3-2.11-8.59t-8.36-3.4V97.9h39.59v78.38q0,6.75,2,8.67c1.35,1.27,3.87,2.28,7.56,3v4.94H649.8ZM663.55,55A16,16,0,0,1,690.8,66.37,16,16,0,1,1,663.55,55Z" transform="translate(-3.67 -7)"/><path d="M426.57,417.51h5.74q3,14.81,11.28,20.9t16.93,6.1q8,0,11.68-3.58a12.43,12.43,0,0,0,3.73-9.42,12.74,12.74,0,0,0-4-9.47,29.39,29.39,0,0,0-7.15-4.53l-15.31-7.46q-12.09-5.94-17.33-12.89a26.19,26.19,0,0,1-5.34-16.42A28.9,28.9,0,0,1,435.13,360q8.36-8.7,23.37-8.71a49,49,0,0,1,13.9,2.17c4.91,1.44,8,2.16,9.17,2.16a4.94,4.94,0,0,0,3.58-1.06,8.09,8.09,0,0,0,1.76-3h4.53v29.82h-5.23q-2.93-10.47-9.57-16.82a21.8,21.8,0,0,0-15.52-6.35q-6.86,0-10.22,3.83a12.29,12.29,0,0,0-3.38,8.26,11.4,11.4,0,0,0,3,7.26q2.93,3.72,11.08,7.65l11.29,5.44q10.47,5,15.31,9.77a27,27,0,0,1,8.06,19.85q0,11.49-8.31,21.41T463,451.66a41.46,41.46,0,0,1-8.32-.86,85.55,85.55,0,0,1-10.32-3l-3.53-1.21c-1.27-.47-2.06-.73-2.36-.8a5.44,5.44,0,0,0-1.16-.1,3.92,3.92,0,0,0-3,1.36,20.67,20.67,0,0,0-2.87,4.58h-4.93Z" transform="translate(-3.67 -7)"/><path d="M506.86,417.51h5.74q3,14.81,11.28,20.9t16.93,6.1q8,0,11.68-3.58a12.43,12.43,0,0,0,3.73-9.42,12.74,12.74,0,0,0-4-9.47,29.39,29.39,0,0,0-7.15-4.53l-15.31-7.46q-12.09-5.94-17.33-12.89a26.19,26.19,0,0,1-5.34-16.42A28.94,28.94,0,0,1,515.42,360q8.37-8.7,23.37-8.71a49.13,49.13,0,0,1,13.91,2.17q7.35,2.16,9.16,2.16a4.94,4.94,0,0,0,3.58-1.06,8,8,0,0,0,1.76-3h4.54v29.82H566.5q-2.93-10.47-9.57-16.82a21.8,21.8,0,0,0-15.52-6.35q-6.85,0-10.22,3.83a12.29,12.29,0,0,0-3.38,8.26,11.4,11.4,0,0,0,3,7.26q2.92,3.72,11.09,7.65l11.28,5.44q10.47,5,15.31,9.77a27,27,0,0,1,8.06,19.85q0,11.49-8.31,21.41t-24.93,9.92a41.46,41.46,0,0,1-8.32-.86,85.55,85.55,0,0,1-10.32-3l-3.53-1.21c-1.27-.47-2.06-.73-2.36-.8a5.38,5.38,0,0,0-1.16-.1,3.92,3.92,0,0,0-3,1.36,21,21,0,0,0-2.87,4.58h-4.93Z" transform="translate(-3.67 -7)"/><path d="M599.69,365.53q13.24-14.41,33.3-14.41,20.44,0,33.49,14.71t13,35.66q0,20.65-12.9,35.51T633,451.86q-20.16,0-33.35-14.46t-13.2-35.91Q586.44,379.94,599.69,365.53ZM619,431.81q3.53,13.41,14,13.4,10,0,13.09-10.27t3.13-33.45q0-23.07-3.28-33.4t-12.84-10.32q-10.49,0-14,13.4-2.31,9-2.31,30.32Q616.77,423.15,619,431.81Z" transform="translate(-3.67 -7)"/><path d="M760.78,357.47q9.53,6.34,9.52,16.32A13.15,13.15,0,0,1,756.9,387a12.71,12.71,0,0,1-6.85-1.81q-5.53-3.23-5.54-11.68c0-.61,0-1.5.1-2.67s.1-2.44.1-3.78c0-3.63-.84-6.11-2.52-7.46a9.52,9.52,0,0,0-5.94-2q-9.57,0-13.6,10.52a67.15,67.15,0,0,0-4,24.13q0,19.35,7.65,32.44t20.66,13.1a25.49,25.49,0,0,0,13.9-3.63,42.67,42.67,0,0,0,8.46-7.76l3.83,3.53q-10.08,14-23.57,19.24a42.31,42.31,0,0,1-15.22,2.72q-19.85,0-32.44-14.2T689.3,403q0-21.56,13.35-36.72t35.61-15.16Q751.26,351.12,760.78,357.47Z" transform="translate(-3.67 -7)"/><path d="M780,443.8q5.44-.9,7.45-2.72,3-2.71,3-9.77V370.67q0-6.32-2.12-8.59c-1.41-1.52-4.2-2.66-8.36-3.4v-4.94h39.59v78.38q0,6.75,2,8.66t7.55,3v4.94H780Zm13.75-132.93A16.07,16.07,0,1,1,789,322.21,15.44,15.44,0,0,1,793.72,310.87Z" transform="translate(-3.67 -7)"/><path d="M852.6,407.36q13.41-8.17,42-16.45v-15q0-9.16-3.88-13.55T877,358a18.09,18.09,0,0,0-9.11,2.06q-3.58,2.07-3.58,5.19a4.49,4.49,0,0,0,.4,2A7.87,7.87,0,0,0,865.9,369l1.21,1.41a14.79,14.79,0,0,1,2.27,3.78,11.36,11.36,0,0,1,.85,4.38q0,5.85-3.87,9a13.87,13.87,0,0,1-9,3.17,15.2,15.2,0,0,1-10.13-3.52Q843,383.68,843,377.05q0-11.87,11.19-18.79t27.5-6.94q17.53,0,29.31,6.75t11.69,25.19v50a6.18,6.18,0,0,0,1.16,3.78,3.24,3.24,0,0,0,2.57,1.56,5,5,0,0,0,2.16-.45,13.35,13.35,0,0,0,3-2.47l3.12,4.34a33.59,33.59,0,0,1-13.4,9.87,26.77,26.77,0,0,1-9.77,1.81q-9.16,0-13.4-5.35-2.42-3-3.53-9a48.37,48.37,0,0,1-19.34,12.11,40,40,0,0,1-12.89,2.22,26.22,26.22,0,0,1-15.82-5.4q-7.35-5.4-7.35-16.8Q839.21,415.54,852.6,407.36Zm36,26.56a39.4,39.4,0,0,0,5.74-5.65v-30.2a42.87,42.87,0,0,0-14.51,6.36q-10.57,7.36-10.57,18.78,0,6.78,3.07,10.26a9.07,9.07,0,0,0,6.9,3.48A16,16,0,0,0,888.57,433.92Z" transform="translate(-3.67 -7)"/><path d="M940.45,362.8v-5.74q2.71-2.52,6.75-5.94,5.34-4.94,10.08-10.18a170.58,170.58,0,0,0,17-22.06h5.24v34.86h19.64v9.06H979.54v62.06a17.82,17.82,0,0,0,1.31,7.26q2,4.53,6.65,4.53a9,9,0,0,0,6.75-2.87,37.59,37.59,0,0,0,5.44-7.91l4.93,2.42a46.71,46.71,0,0,1-8.65,13.8,28.64,28.64,0,0,1-21.64,9.37,28,28,0,0,1-12.68-2.72q-10.47-5.24-10.52-19V362.8Z" transform="translate(-3.67 -7)"/><path d="M1009.16,443.8c3.62-.6,6.11-1.51,7.45-2.72q3-2.71,3-9.77V370.67q0-6.32-2.11-8.59c-1.41-1.52-4.2-2.66-8.36-3.4v-4.94h39.59v78.38q0,6.75,2,8.66t7.56,3v4.94h-49.16Zm13.75-132.93a16,16,0,1,1-4.69,11.34A15.44,15.44,0,0,1,1022.91,310.87Z" transform="translate(-3.67 -7)"/><path d="M1080.94,365.53q13.24-14.41,33.29-14.41,20.46,0,33.5,14.71t13,35.66q0,20.65-12.89,35.51t-33.65,14.86q-20.14,0-33.34-14.46t-13.2-35.91Q1067.69,379.94,1080.94,365.53Zm19.29,66.28q3.52,13.41,14,13.4,10,0,13.1-10.27t3.12-33.45q0-23.07-3.27-33.4t-12.85-10.32q-10.47,0-14,13.4-2.32,9-2.32,30.32Q1098,423.15,1100.23,431.81Z" transform="translate(-3.67 -7)"/><path d="M1169.64,443.8q5.64-.71,8.31-3.07t2.67-9.42V370.67q0-6.32-2.16-8.74t-8.82-3.25v-4.94h39.09v14.81a42.28,42.28,0,0,1,12.54-12.34,30.54,30.54,0,0,1,16.87-4.89q13.3,0,20.61,6.85t7.3,24.08v49.87q0,6.94,2.37,9c1.57,1.35,4.21,2.25,7.91,2.72v4.94h-48.46V443.8q5.54-1.1,7.55-3t2-8.66v-50q0-7-1.41-10.58-2.41-6.35-9.57-6.35a14.7,14.7,0,0,0-9.82,3.88,34.4,34.4,0,0,0-6.9,7.81v55.21q0,6.75,2,8.66t7.56,3v4.94h-49.67Z" transform="translate(-3.67 -7)"/><path d="M618.1,705.14q5.43-1.3,7.7-3.47c1.52-1.45,2.27-4.45,2.27-9V587.57q0-6.6-2.11-8.64c-1.42-1.35-4-2.47-7.86-3.34v-4.94h39.09v122c0,4.57.73,7.55,2.21,9s4.1,2.59,7.86,3.53v4.94H618.1Z" transform="translate(-3.67 -7)"/><path d="M675.42,705.14q5.45-.9,7.45-2.72,3-2.71,3-9.77V632q0-6.3-2.12-8.58c-1.41-1.53-4.2-2.66-8.36-3.41v-4.93H715v78.37c0,4.51.67,7.39,2,8.67s3.86,2.28,7.55,3v4.94H675.42Zm13.75-132.93a16.07,16.07,0,1,1-4.68,11.34A15.44,15.44,0,0,1,689.17,572.21Z" transform="translate(-3.67 -7)"/><path d="M732.74,705.14q5.64-.71,8.31-3.07t2.67-9.42V632q0-6.3-2.16-8.74T732.74,620v-4.93h39.09v14.81a42.31,42.31,0,0,1,12.54-12.35,30.64,30.64,0,0,1,16.88-4.88q13.29,0,20.6,6.85t7.3,24.08v49.86q0,7,2.37,9c1.58,1.34,4.21,2.25,7.91,2.72v4.94H791v-4.94c3.69-.74,6.21-1.74,7.56-3s2-4.16,2-8.67v-50q0-7.05-1.41-10.58-2.42-6.35-9.57-6.35a14.72,14.72,0,0,0-9.82,3.88,34.4,34.4,0,0,0-6.9,7.81v55.2c0,4.51.67,7.39,2,8.67s3.86,2.28,7.56,3v4.94H732.74Z" transform="translate(-3.67 -7)"/><path d="M861,626.81q11.63-14.14,28-14.15a26.46,26.46,0,0,1,14.51,4,54.52,54.52,0,0,1,9.87,8.66V587.57q0-7.82-3-9.7t-12.49-2.28v-4.94h44.43V689.42q0,6.41,2.41,8.85t9.47,3v4.74q-17.32,1.71-22.36,2.57T914.08,713V699.4a55.31,55.31,0,0,1-10.68,9A31.35,31.35,0,0,1,886.88,713q-15.12,0-26.3-12.8T849.4,665.45Q849.4,641,861,626.81Zm47,68.56q5.29-5.94,5.3-8.36V636.84q0-2.52-4.55-7.46a15.55,15.55,0,0,0-12-4.93q-11,0-14.95,15.21-2.13,8.16-2.13,23.07,0,15.91,2,24,3.74,14.61,14.34,14.61Q902.76,701.31,908.07,695.37Z" transform="translate(-3.67 -7)"/><path d="M335,542a20.22,20.22,0,0,1,15.54-6.72,20,20,0,0,1,15.63,6.86,24.21,24.21,0,0,1,6.09,16.64,24.46,24.46,0,0,1-6,16.58,19.79,19.79,0,0,1-15.7,6.93A20.14,20.14,0,0,1,335,575.49a23.89,23.89,0,0,1-6.16-16.76Q328.83,548.68,335,542Zm9,30.94q1.64,6.24,6.53,6.25,4.65,0,6.11-4.8t1.46-15.61q0-10.76-1.53-15.58t-6-4.82q-4.89,0-6.54,6.25Q343,548.77,343,558.73T344,572.89Z" transform="translate(-3.67 -7)"/><path d="M376.17,578.48a7.67,7.67,0,0,0,4.26-1.32c.86-.72,1.29-2.22,1.29-4.51V541.34h-5.55v-4.23h5.55v-3.58a25.11,25.11,0,0,1,2.12-11q4-8.09,14.76-8.09a17.32,17.32,0,0,1,9.71,2.61,7.94,7.94,0,0,1,4,6.89,5.8,5.8,0,0,1-1.67,4.32,6,6,0,0,1-4.44,1.65,5.64,5.64,0,0,1-3.95-1.5,4.76,4.76,0,0,1-1.65-3.63,6.64,6.64,0,0,1,1.06-3.36,7.33,7.33,0,0,0,1.06-2.14,1.42,1.42,0,0,0-.85-1.5,5,5,0,0,0-1.83-.33,4.68,4.68,0,0,0-3.62,1.36q-1.27,1.37-1.27,5.88v12.46h8.37v4.23h-8.37v29.57q0,5,1.43,6.11t6.37,1.46v2.3H376.17Z" transform="translate(-3.67 -7)"/><path d="M280.13,650.72V648c.84-.78,1.89-1.71,3.15-2.78,1.66-1.53,3.22-3.11,4.7-4.74a79.91,79.91,0,0,0,7.94-10.3h2.45v16.27h9.16v4.23h-9.16v29a8.21,8.21,0,0,0,.61,3.38,3.18,3.18,0,0,0,3.1,2.12,4.19,4.19,0,0,0,3.15-1.34,17.27,17.27,0,0,0,2.54-3.69l2.3,1.13a21.58,21.58,0,0,1-4,6.44,13.36,13.36,0,0,1-10.09,4.37,13,13,0,0,1-5.92-1.27q-4.89-2.45-4.91-8.89V650.72Z" transform="translate(-3.67 -7)"/><path d="M312.19,688.52a7.12,7.12,0,0,0,3.88-1.44c.83-.73,1.24-2.2,1.24-4.39v-49c0-1.93-.34-3.28-1-4s-2.06-1.29-4.09-1.54v-2.31h18.62v27.08a24.62,24.62,0,0,1,6.22-5.52,14.11,14.11,0,0,1,7.36-1.95,13.26,13.26,0,0,1,9.17,3.22q3.62,3.23,3.62,11v23.13c0,2.16.37,3.58,1.1,4.25a8.07,8.07,0,0,0,3.69,1.58v2.3H339.36v-2.3a7.5,7.5,0,0,0,3.53-1.41c.62-.6.94-2,.94-4.05V659.74a14,14,0,0,0-.66-4.93,4.34,4.34,0,0,0-4.47-3,8,8,0,0,0-5.15,2.3c-1.77,1.54-2.65,2.58-2.65,3.15v25.76c0,2.1.31,3.45.94,4.05a7.5,7.5,0,0,0,3.53,1.41v2.3H312.19Z" transform="translate(-3.67 -7)"/><path d="M372.21,651.49a19,19,0,0,1,14.24-6.13,17.19,17.19,0,0,1,8.94,2.49,16.8,16.8,0,0,1,6.45,6.91,26.51,26.51,0,0,1,2.35,8.65,31.35,31.35,0,0,1,.33,3.81H379.93a34.68,34.68,0,0,0,1.89,10q2.82,7.95,9.94,7.95a10.91,10.91,0,0,0,6.41-2.12,29.66,29.66,0,0,0,4.57-4.27l2.2,1.36q-4.47,7.33-10.35,10.2a20,20,0,0,1-8.76,1.84q-7.09,0-13.32-5.6t-6.21-17.87Q366.3,657.64,372.21,651.49Zm20.46,12.16q-.09-8.5-1.32-11.9a4.77,4.77,0,0,0-4.9-3.38q-3.78,0-5.17,3.9t-1.58,11.38Z" transform="translate(-3.67 -7)"/><text transform="translate(23.24 96.98)" font-size="12" font-family="MyriadPro-Regular, Myriad Pro"><tspan letter-spacing="-0.01em">L</tspan><tspan x="5.5" y="0">o</tspan><tspan x="12.08" y="0" letter-spacing="-0.01em">r</tspan><tspan x="15.89" y="0" letter-spacing="0em">em ipsu</tspan><tspan x="55.45" y="0" letter-spacing="-0.01em">m</tspan><tspan x="65.3" y="0" letter-spacing="0em">v</tspan></text></svg>